<svg width="24" height="26" viewBox="0 0 24 26" fill="none" xmlns="http://www.w3.org/2000/svg">
<path d="M13.3333 25.6028H7.99998V8.7991H13.3333V11.5997C14.4701 10.0807 16.1941 9.17519 18.0333 9.13098C21.3407 9.15026 24.0096 11.9769 24 15.4505V25.6028H18.6666V16.1507C18.4533 14.586 17.1756 13.4251 15.6706 13.4285C15.0123 13.4504 14.391 13.7531 13.9499 14.2668C13.5088 14.7805 13.2862 15.4608 13.3333 16.1507V25.6028ZM5.33332 25.6028H0V8.7991H5.33332V25.6028ZM2.66666 5.9985C1.1939 5.9985 0 4.74462 0 3.19789C0 1.65115 1.1939 0.397278 2.66666 0.397278C4.13942 0.397278 5.33332 1.65115 5.33332 3.19789C5.33332 3.94065 5.05237 4.653 4.55228 5.17822C4.05218 5.70343 3.3739 5.9985 2.66666 5.9985Z" fill="#3730A3"/>
</svg>
