<svg width="26" height="28" viewBox="0 0 26 28" fill="none" xmlns="http://www.w3.org/2000/svg">
<path d="M12.9993 0.872132C6.62413 0.871284 1.18956 5.66022 0.16884 12.1784C-0.851878 18.6965 2.84266 25.0191 8.89128 27.1055C9.54273 27.227 9.77596 26.8127 9.77596 26.4564C9.77596 26.1366 9.76553 25.2891 9.76162 24.1622C6.14606 24.9719 5.38255 22.3566 5.38255 22.3566C5.14453 21.5427 4.63283 20.8442 3.94023 20.3876C2.76762 19.5523 4.03014 19.5711 4.03014 19.5711C4.86488 19.6897 5.59955 20.202 6.01967 20.9585C6.37528 21.6282 6.97439 22.123 7.68388 22.3331C8.39338 22.5432 9.15449 22.4511 9.7981 22.0772C9.85859 21.3944 10.1519 20.7561 10.6255 20.2769C7.74081 19.9382 4.70765 18.783 4.70765 13.6238C4.69164 12.2894 5.17005 10.9994 6.04443 10.0192C5.6488 8.85769 5.69539 7.58366 6.17472 6.45646C6.17472 6.45646 7.26525 6.09344 9.74729 7.83433C11.876 7.22975 14.1227 7.22975 16.2514 7.83433C18.7347 6.09209 19.824 6.45646 19.824 6.45646C20.3055 7.58313 20.3521 8.85804 19.9543 10.0192C20.8318 10.9993 21.3099 12.2927 21.2884 13.6292C21.2884 18.8019 18.2527 19.9382 15.3576 20.2715C15.9821 20.9329 16.3024 21.8402 16.2371 22.7628C16.2371 24.563 16.2214 26.0151 16.2214 26.4564C16.2214 26.8167 16.4534 27.2351 17.1165 27.1028C23.1626 25.0129 26.8532 18.6899 25.8304 12.1735C24.8076 5.65708 19.3732 0.870621 12.9993 0.872132Z" fill="#3730A3"/>
</svg>
